<?xml version="1.0" encoding="utf-8"?>
<!-- Generator: Adobe Illustrator 19.1.0, SVG Export Plug-In . SVG Version: 6.00 Build 0)  -->
<svg version="1.1" id="Layer_1" xmlns="http://www.w3.org/2000/svg" xmlns:xlink="http://www.w3.org/1999/xlink" x="0px" y="0px"
	 viewBox="0 0 38.8 38.8" style="enable-background:new 0 0 38.8 38.8;" xml:space="preserve">
<style type="text/css">
	.st0{fill:#979797;}
</style>
<g>
	<g>
		<path class="st0" d="M9.4,18.5c0,0,0,0.1-0.1,0.1c0,0,0,0.1-0.1,0.1c0,0,0,0,0,0.1c0,0,0,0,0,0c0,0,0,0.1,0,0.1c0,0,0,0.1,0,0.1
			c0,0,0,0.1,0,0.1c0,0,0,0.1,0,0.1c0,0,0,0.1,0,0.1c0,0,0,0.1,0,0.1c0,0,0,0.1,0,0.1c0,0,0,0.1,0,0.1c0,0,0,0.1,0,0.1
			c0,0,0,0.1,0,0.1c0,0,0,0,0,0c0,0,0,0.1,0,0.1c0,0,0,0.1,0.1,0.1c0,0,0,0.1,0.1,0.1c0,0,0,0.1,0.1,0.1c0,0,0.1,0.1,0.1,0.1
			c0,0,0,0,0,0l7.7,7.7c0.6,0.6,1.7,0.6,2.3,0c0.6-0.6,0.6-1.7,0-2.3L14.8,21H30c0.6,0,1.1-0.3,1.4-0.7c0.2-0.3,0.3-0.6,0.3-0.9
			c0-0.5-0.2-0.9-0.5-1.2c-0.3-0.3-0.7-0.5-1.2-0.5l0,0H14.8l4.9-4.9c0.6-0.6,0.6-1.7,0-2.3c-0.3-0.3-0.7-0.5-1.2-0.5
			c-0.4,0-0.8,0.2-1.2,0.5l-7.7,7.7c0,0,0,0,0,0.1C9.5,18.3,9.5,18.4,9.4,18.5C9.5,18.4,9.4,18.4,9.4,18.5z"/>
		<g>
			<path class="st0" d="M19.4,38.8c10.7,0,19.4-8.7,19.4-19.4C38.8,8.7,30.1,0,19.4,0C8.7,0,0,8.7,0,19.4C0,30.1,8.7,38.8,19.4,38.8
				z M19.4,2.8c9.1,0,16.6,7.4,16.6,16.6C36,28.5,28.5,36,19.4,36c-9.1,0-16.6-7.4-16.6-16.6C2.8,10.3,10.3,2.8,19.4,2.8z"/>
		</g>
	</g>
</g>
</svg>
