<?xml version="1.0" encoding="utf-8"?>
<!-- Generator: Adobe Illustrator 19.1.0, SVG Export Plug-In . SVG Version: 6.00 Build 0)  -->
<svg version="1.1" id="Layer_1" xmlns="http://www.w3.org/2000/svg" xmlns:xlink="http://www.w3.org/1999/xlink" x="0px" y="0px"
	 viewBox="0 0 240.7 82.3" style="enable-background:new 0 0 240.7 82.3;" xml:space="preserve">
<style type="text/css">
	.st0{fill:none;stroke:#979797;stroke-width:7;stroke-miterlimit:10;}
	.st1{fill:none;stroke:#979797;stroke-width:7.5662;stroke-linecap:round;stroke-miterlimit:10;}
	.st2{fill:none;stroke:#979797;stroke-width:6;stroke-linecap:round;stroke-miterlimit:10;}
</style>
<g>
	<path class="st0" d="M169.6,78.8H71.2c-2.8,0-5-2.3-5-5V8.5c0-2.8,2.3-5,5-5h98.4c2.8,0,5,2.3,5,5v65.3
		C174.6,76.6,172.3,78.8,169.6,78.8z"/>
	<polyline class="st1" points="85.7,27.3 118.6,55 155.1,27.3 	"/>
	<line class="st2" x1="3" y1="7.2" x2="51.7" y2="7.2"/>
	<line class="st2" x1="189" y1="7.2" x2="237.7" y2="7.2"/>
	<line class="st2" x1="23" y1="29.8" x2="51.7" y2="29.8"/>
	<line class="st2" x1="189" y1="29.8" x2="217.7" y2="29.8"/>
	<line class="st2" x1="36" y1="51.2" x2="51.7" y2="51.2"/>
	<line class="st2" x1="189" y1="51.2" x2="204.7" y2="51.2"/>
</g>
</svg>
