<?xml version="1.0" encoding="utf-8"?>
<!-- Generator: Adobe Illustrator 19.1.0, SVG Export Plug-In . SVG Version: 6.00 Build 0)  -->
<svg version="1.1" id="Layer_1" xmlns="http://www.w3.org/2000/svg" xmlns:xlink="http://www.w3.org/1999/xlink" x="0px" y="0px"
	 viewBox="0 0 85.1 74.7" style="enable-background:new 0 0 85.1 74.7;" xml:space="preserve">
<style type="text/css">
	.st0{fill:#0B8F45;}
	.st1{fill:#FFFFFF;}
</style>
<polygon class="st0" points="0,0 85.1,0 85.1,74.7 "/>
<g>
	<path class="st1" d="M48.7,13.3l-7,7l-1.1-1.1l8.7-8.7l1.2,1.2L48,23.3l7-7l1,1L47.4,26l-1.2-1.2L48.7,13.3z"/>
	<path class="st1" d="M57.9,19.2l5.9,5.9l-1,1L58,21.3L55.3,24l4.4,4.4l-1,1L54.3,25l-3,3l4.8,4.8l-1,1l-5.9-5.9L57.9,19.2z"/>
	<path class="st1" d="M63,41.6l5.3-9.2l-9.2,5.3l-1.2-1.2l6.5-10.8l1.2,1.2L60,35.7l9.2-5.3l1.2,1.2L65,40.8l9-5.6l1.1,1.1
		l-10.9,6.4L63,41.6z"/>
</g>
<g>
</g>
<g>
</g>
<g>
</g>
<g>
</g>
<g>
</g>
<g>
</g>
</svg>
